<svg xmlns="http://www.w3.org/2000/svg" width="980" height="540" viewBox="0 0 980 540">
<rect width="100%" height="100%" fill="#ffffff"/>
<text x="490.0" y="34" font-size="22" text-anchor="middle" font-weight="700" fill="#1f2937" font-family="Microsoft YaHei, SimHei, Arial, sans-serif">第一问：年度总额敏感性</text>
<line x1="105" y1="455" x2="935" y2="455" stroke="#9ca3af"/>
<line x1="105" y1="75" x2="105" y2="455" stroke="#9ca3af"/>
<line x1="105" y1="455.0" x2="935" y2="455.0" stroke="#e5e7eb"/>
<text x="93" y="460.0" font-size="12" text-anchor="end" font-weight="400" fill="#6b7280" font-family="Microsoft YaHei, SimHei, Arial, sans-serif">0</text>
<line x1="105" y1="360.0" x2="935" y2="360.0" stroke="#e5e7eb"/>
<text x="93" y="365.0" font-size="12" text-anchor="end" font-weight="400" fill="#6b7280" font-family="Microsoft YaHei, SimHei, Arial, sans-serif">3750</text>
<line x1="105" y1="265.0" x2="935" y2="265.0" stroke="#e5e7eb"/>
<text x="93" y="270.0" font-size="12" text-anchor="end" font-weight="400" fill="#6b7280" font-family="Microsoft YaHei, SimHei, Arial, sans-serif">7500</text>
<line x1="105" y1="170.0" x2="935" y2="170.0" stroke="#e5e7eb"/>
<text x="93" y="175.0" font-size="12" text-anchor="end" font-weight="400" fill="#6b7280" font-family="Microsoft YaHei, SimHei, Arial, sans-serif">11250</text>
<line x1="105" y1="75.0" x2="935" y2="75.0" stroke="#e5e7eb"/>
<text x="93" y="80.0" font-size="12" text-anchor="end" font-weight="400" fill="#6b7280" font-family="Microsoft YaHei, SimHei, Arial, sans-serif">15000</text>
<polyline points="105.00,379.00 312.50,328.33 520.00,252.33 727.50,201.67 935.00,75.00" fill="none" stroke="#94a3b8" stroke-width="3" stroke-dasharray="7 5"/>
<polyline points="105.00,379.00 312.50,328.33 520.00,307.81 727.50,307.81 935.00,307.81" fill="none" stroke="#2563eb" stroke-width="4"/>
<circle cx="105.0" cy="379.0" r="4" fill="#94a3b8"/>
<circle cx="105.0" cy="379.0" r="5" fill="#2563eb"/>
<text x="105.0" y="367.0" font-size="12" text-anchor="middle" font-weight="600" fill="#1d4ed8" font-family="Microsoft YaHei, SimHei, Arial, sans-serif">3000</text>
<text x="105.0" y="483" font-size="12" text-anchor="middle" font-weight="400" fill="#374151" font-family="Microsoft YaHei, SimHei, Arial, sans-serif">3000</text>
<circle cx="312.5" cy="328.3333333333333" r="4" fill="#94a3b8"/>
<circle cx="312.5" cy="328.33333333333337" r="5" fill="#2563eb"/>
<text x="312.5" y="316.33333333333337" font-size="12" text-anchor="middle" font-weight="600" fill="#1d4ed8" font-family="Microsoft YaHei, SimHei, Arial, sans-serif">5000</text>
<text x="312.5" y="483" font-size="12" text-anchor="middle" font-weight="400" fill="#374151" font-family="Microsoft YaHei, SimHei, Arial, sans-serif">5000</text>
<circle cx="520.0" cy="252.33333333333334" r="4" fill="#94a3b8"/>
<circle cx="520.0" cy="307.81333333333333" r="5" fill="#2563eb"/>
<text x="520.0" y="295.81333333333333" font-size="12" text-anchor="middle" font-weight="600" fill="#1d4ed8" font-family="Microsoft YaHei, SimHei, Arial, sans-serif">5810</text>
<text x="520.0" y="483" font-size="12" text-anchor="middle" font-weight="400" fill="#374151" font-family="Microsoft YaHei, SimHei, Arial, sans-serif">8000</text>
<circle cx="727.5" cy="201.66666666666666" r="4" fill="#94a3b8"/>
<circle cx="727.5" cy="307.81333333333333" r="5" fill="#2563eb"/>
<text x="727.5" y="295.81333333333333" font-size="12" text-anchor="middle" font-weight="600" fill="#1d4ed8" font-family="Microsoft YaHei, SimHei, Arial, sans-serif">5810</text>
<text x="727.5" y="483" font-size="12" text-anchor="middle" font-weight="400" fill="#374151" font-family="Microsoft YaHei, SimHei, Arial, sans-serif">10000</text>
<circle cx="935.0" cy="75.0" r="4" fill="#94a3b8"/>
<circle cx="935.0" cy="307.81333333333333" r="5" fill="#2563eb"/>
<text x="935.0" y="295.81333333333333" font-size="12" text-anchor="middle" font-weight="600" fill="#1d4ed8" font-family="Microsoft YaHei, SimHei, Arial, sans-serif">5810</text>
<text x="935.0" y="483" font-size="12" text-anchor="middle" font-weight="400" fill="#374151" font-family="Microsoft YaHei, SimHei, Arial, sans-serif">15000</text>
<rect x="690" y="54" width="18" height="4" fill="#2563eb"/>
<text x="765" y="62" font-size="13" text-anchor="start" font-weight="400" fill="#1f2937" font-family="Microsoft YaHei, SimHei, Arial, sans-serif">实际放贷金额</text>
<line x1="690" y1="82" x2="708" y2="82" stroke="#94a3b8" stroke-width="3" stroke-dasharray="7 5"/>
<text x="765" y="86" font-size="13" text-anchor="start" font-weight="400" fill="#1f2937" font-family="Microsoft YaHei, SimHei, Arial, sans-serif">年度信贷总额</text>
<text x="490.0" y="522" font-size="13" text-anchor="middle" font-weight="400" fill="#6b7280" font-family="Microsoft YaHei, SimHei, Arial, sans-serif">年度信贷总额（万元）</text>
<text x="20" y="265.0" font-size="13" text-anchor="start" font-weight="400" fill="#6b7280" font-family="Microsoft YaHei, SimHei, Arial, sans-serif">金额（万元）</text>
</svg>