<svg xmlns="http://www.w3.org/2000/svg" width="920" height="520" viewBox="0 0 920 520">
<rect width="100%" height="100%" fill="#ffffff"/>
<text x="460.0" y="34" font-size="22" text-anchor="middle" font-weight="700" fill="#1f2937" font-family="Microsoft YaHei, SimHei, Arial, sans-serif">第三问：不同冲击情景实际放贷金额</text>
<line x1="100" y1="425" x2="880" y2="425" stroke="#9ca3af"/>
<line x1="100" y1="70" x2="100" y2="425" stroke="#9ca3af"/>
<line x1="100" y1="425.0" x2="880" y2="425.0" stroke="#e5e7eb"/>
<text x="88" y="430.0" font-size="12" text-anchor="end" font-weight="400" fill="#6b7280" font-family="Microsoft YaHei, SimHei, Arial, sans-serif">0</text>
<line x1="100" y1="336.25" x2="880" y2="336.25" stroke="#e5e7eb"/>
<text x="88" y="341.25" font-size="12" text-anchor="end" font-weight="400" fill="#6b7280" font-family="Microsoft YaHei, SimHei, Arial, sans-serif">2500</text>
<line x1="100" y1="247.5" x2="880" y2="247.5" stroke="#e5e7eb"/>
<text x="88" y="252.5" font-size="12" text-anchor="end" font-weight="400" fill="#6b7280" font-family="Microsoft YaHei, SimHei, Arial, sans-serif">5000</text>
<line x1="100" y1="158.75" x2="880" y2="158.75" stroke="#e5e7eb"/>
<text x="88" y="163.75" font-size="12" text-anchor="end" font-weight="400" fill="#6b7280" font-family="Microsoft YaHei, SimHei, Arial, sans-serif">7500</text>
<line x1="100" y1="70.0" x2="880" y2="70.0" stroke="#e5e7eb"/>
<text x="88" y="75.0" font-size="12" text-anchor="end" font-weight="400" fill="#6b7280" font-family="Microsoft YaHei, SimHei, Arial, sans-serif">10000</text>
<rect x="100.0" y="70.0" width="248.0" height="355.0" rx="4" fill="#2563eb"/>
<text x="224.0" y="62.0" font-size="13" text-anchor="middle" font-weight="600" fill="#111827" font-family="Microsoft YaHei, SimHei, Arial, sans-serif">10000万元</text>
<text x="224.0" y="455" font-size="13" text-anchor="middle" font-weight="400" fill="#374151" font-family="Microsoft YaHei, SimHei, Arial, sans-serif">温和</text>
<rect x="366.0" y="70.0" width="248.0" height="355.0" rx="4" fill="#16a34a"/>
<text x="490.0" y="62.0" font-size="13" text-anchor="middle" font-weight="600" fill="#111827" font-family="Microsoft YaHei, SimHei, Arial, sans-serif">10000万元</text>
<text x="490.0" y="455" font-size="13" text-anchor="middle" font-weight="400" fill="#374151" font-family="Microsoft YaHei, SimHei, Arial, sans-serif">基准</text>
<rect x="632.0" y="105.49999999999989" width="248.0" height="319.5000000000001" rx="4" fill="#f59e0b"/>
<text x="756.0" y="97.49999999999989" font-size="13" text-anchor="middle" font-weight="600" fill="#111827" font-family="Microsoft YaHei, SimHei, Arial, sans-serif">9000万元</text>
<text x="756.0" y="455" font-size="13" text-anchor="middle" font-weight="400" fill="#374151" font-family="Microsoft YaHei, SimHei, Arial, sans-serif">严重</text>
</svg>